# xmcd
#
# Track frame offsets:
#	150
#	16001
#	35147
#	63118
#	90811
#	118721
#	144522
#	168258
#
# Disc length: 2561 seconds
# Revision: 0
# Processed by: cddbd v1.5.2PL0 Copyright (c) Steve Scherf et al.
# Submitted via: dBpowerAMP V12.0
#
DISCID=5809ff08
DTITLE=Five Alarm Funk - Rock The Sky
DYEAR=1900
DGENRE=
TTITLE0=Wash Your Face
TTITLE1=Pyramid
TTITLE2=Critic
TTITLE3=The Iron Pegasus
TTITLE4=Pulp
TTITLE5=Mastodon
TTITLE6=Crimes Of Passion
TTITLE7=Monolith
EXTD=
EXTT0=
EXTT1=
EXTT2=
EXTT3=
EXTT4=
EXTT5=
EXTT6=
EXTT7=
PLAYORDER=
